<svg xmlns="http://www.w3.org/2000/svg" viewBox="0 0 512 512" role="img" aria-label="CAD Manutenção">
  <defs>
    <linearGradient id="bg" x1="0" x2="1" y1="0" y2="1">
      <stop offset="0%" stop-color="#2563eb"/>
      <stop offset="100%" stop-color="#0f172a"/>
    </linearGradient>
  </defs>

  <rect width="512" height="512" rx="96" fill="url(#bg)"/>

  <g fill="#e2e8f0">
    <rect x="236" y="72" width="40" height="74" rx="14"/>
    <rect x="236" y="366" width="40" height="74" rx="14"/>
    <rect x="366" y="236" width="74" height="40" rx="14"/>
    <rect x="72" y="236" width="74" height="40" rx="14"/>

    <rect x="332" y="120" width="40" height="74" rx="14" transform="rotate(45 352 157)"/>
    <rect x="332" y="318" width="40" height="74" rx="14" transform="rotate(-45 352 355)"/>
    <rect x="140" y="318" width="40" height="74" rx="14" transform="rotate(45 160 355)"/>
    <rect x="140" y="120" width="40" height="74" rx="14" transform="rotate(-45 160 157)"/>
  </g>

  <circle cx="256" cy="256" r="120" fill="#0f172a" opacity="0.82"/>
  <circle cx="256" cy="256" r="84" fill="#1e293b"/>

  <g transform="rotate(-35 256 256)">
    <rect x="215" y="162" width="82" height="186" rx="32" fill="#f8fafc"/>
    <circle cx="256" cy="332" r="26" fill="#1e293b"/>
    <path d="M216 154c0-30 24-54 54-54h6v36h-10a19 19 0 0 0-19 19v17h-31z" fill="#f8fafc"/>
    <path d="M296 154c0-30-24-54-54-54h-6v36h10a19 19 0 0 1 19 19v17h31z" fill="#f8fafc"/>
  </g>
</svg>
