<svg xmlns="http://www.w3.org/2000/svg" viewBox="0 0 512 512" role="img" aria-label="CAD Manutenção">
  <rect width="512" height="512" fill="#0f172a"/>

  <circle cx="256" cy="256" r="184" fill="#1d4ed8"/>

  <g fill="#bfdbfe">
    <rect x="236" y="86" width="40" height="74" rx="14"/>
    <rect x="236" y="352" width="40" height="74" rx="14"/>
    <rect x="352" y="236" width="74" height="40" rx="14"/>
    <rect x="86" y="236" width="74" height="40" rx="14"/>

    <rect x="322" y="126" width="40" height="74" rx="14" transform="rotate(45 342 163)"/>
    <rect x="322" y="312" width="40" height="74" rx="14" transform="rotate(-45 342 349)"/>
    <rect x="150" y="312" width="40" height="74" rx="14" transform="rotate(45 170 349)"/>
    <rect x="150" y="126" width="40" height="74" rx="14" transform="rotate(-45 170 163)"/>
  </g>

  <circle cx="256" cy="256" r="108" fill="#0f172a"/>

  <g transform="rotate(-35 256 256)">
    <rect x="219" y="170" width="74" height="168" rx="30" fill="#f8fafc"/>
    <circle cx="256" cy="324" r="24" fill="#0f172a"/>
    <path d="M220 162c0-28 22-50 50-50h6v33h-10a17 17 0 0 0-17 17v16h-29z" fill="#f8fafc"/>
    <path d="M292 162c0-28-22-50-50-50h-6v33h10a17 17 0 0 1 17 17v16h29z" fill="#f8fafc"/>
  </g>
</svg>
